<svg width="20" height="20" viewBox="0 0 20 20" fill="none" xmlns="http://www.w3.org/2000/svg">
<g clip-path="url(#clip0_102_25)">
<path d="M17.1447 4.68333C17.0764 4.45357 16.9356 4.25207 16.7433 4.10889C16.5511 3.96571 16.3177 3.88854 16.078 3.88889H3.92246C3.67894 3.88871 3.44211 3.96853 3.24838 4.11608C3.05466 4.26363 2.91477 4.47074 2.85024 4.70556L1.27246 11.1111H18.728L17.1447 4.68333Z" fill="#2A3838"/>
<path d="M1.11133 12.2222V16.1111C1.11133 16.4058 1.22839 16.6884 1.43676 16.8968C1.64514 17.1052 1.92775 17.2222 2.22244 17.2222H17.778C18.0727 17.2222 18.3553 17.1052 18.5637 16.8968C18.772 16.6884 18.8891 16.4058 18.8891 16.1111V12.2222H1.11133ZM16.6669 15H14.4447V13.8889H16.6669V15Z" fill="#153B3C"/>
</g>
<defs>
<clipPath id="clip0_102_25">
<rect width="20" height="20" fill="white"/>
</clipPath>
</defs>
</svg>
