<svg width="20" height="20" viewBox="0 0 20 20" fill="none" xmlns="http://www.w3.org/2000/svg">
<path d="M6.66699 3.33334V13.3333C6.66699 13.7754 6.84259 14.1993 7.15515 14.5118C7.46771 14.8244 7.89163 15 8.33366 15H15.0003C15.4424 15 15.8663 14.8244 16.1788 14.5118C16.4914 14.1993 16.667 13.7754 16.667 13.3333V6.03501C16.667 5.81297 16.6226 5.59318 16.5364 5.38854C16.4503 5.1839 16.3241 4.99854 16.1653 4.84334L13.4028 2.14167C13.0915 1.83722 12.6733 1.66673 12.2378 1.66667H8.33366C7.89163 1.66667 7.46771 1.84227 7.15515 2.15483C6.84259 2.46739 6.66699 2.89131 6.66699 3.33334V3.33334Z" stroke="#202020" stroke-width="2" stroke-linecap="round" stroke-linejoin="round"/>
<path d="M13.3335 15V16.6667C13.3335 17.1087 13.1579 17.5326 12.8453 17.8452C12.5328 18.1577 12.1089 18.3333 11.6668 18.3333H5.00016C4.55814 18.3333 4.13421 18.1577 3.82165 17.8452C3.50909 17.5326 3.3335 17.1087 3.3335 16.6667V7.50001C3.3335 7.05798 3.50909 6.63406 3.82165 6.3215C4.13421 6.00894 4.55814 5.83334 5.00016 5.83334H6.66683" stroke="#202020" stroke-width="2" stroke-linecap="round" stroke-linejoin="round"/>
</svg>
