<svg width="20" height="20" viewBox="0 0 20 20" fill="none" xmlns="http://www.w3.org/2000/svg">
<g clip-path="url(#clip0_102_9)">
<path d="M12.7778 2.22223H3.88894C3.59426 2.22223 3.31164 2.33929 3.10327 2.54767C2.8949 2.75604 2.77783 3.03866 2.77783 3.33334V16.6667C2.77783 16.9614 2.8949 17.244 3.10327 17.4523C3.31164 17.6607 3.59426 17.7778 3.88894 17.7778H12.7778C13.0725 17.7778 13.3551 17.6607 13.5635 17.4523C13.7719 17.244 13.8889 16.9614 13.8889 16.6667V13.3333H8.68339C8.53604 13.3333 8.39474 13.2748 8.29055 13.1706C8.18636 13.0664 8.12783 12.9251 8.12783 12.7778C8.12783 12.6304 8.18636 12.4891 8.29055 12.3849C8.39474 12.2808 8.53604 12.2222 8.68339 12.2222H13.8889V3.33334C13.8889 3.03866 13.7719 2.75604 13.5635 2.54767C13.3551 2.33929 13.0725 2.22223 12.7778 2.22223Z" fill="#256666"/>
<path d="M15.6445 9.6C15.5382 9.50899 15.4015 9.46143 15.2617 9.46683C15.1218 9.47223 14.9892 9.53019 14.8903 9.62913C14.7913 9.72808 14.7334 9.86071 14.728 10.0005C14.7226 10.1403 14.7701 10.2771 14.8611 10.3833L16.7389 12.2222H13.8889V13.3333H16.7389L14.8611 15.2556C14.803 15.3054 14.7557 15.3666 14.7224 15.4356C14.6891 15.5045 14.6703 15.5796 14.6674 15.6561C14.6644 15.7326 14.6773 15.8089 14.7052 15.8802C14.7332 15.9515 14.7755 16.0162 14.8297 16.0704C14.8838 16.1245 14.9486 16.1669 15.0198 16.1948C15.0911 16.2227 15.1674 16.2356 15.2439 16.2327C15.3205 16.2297 15.3955 16.211 15.4645 16.1776C15.5334 16.1443 15.5947 16.097 15.6445 16.0389L18.8889 12.8167L15.6445 9.6Z" fill="#256666"/>
</g>
<defs>
<clipPath id="clip0_102_9">
<rect width="20" height="20" fill="white"/>
</clipPath>
</defs>
</svg>
