<svg width="20" height="20" viewBox="0 0 20 20" fill="none" xmlns="http://www.w3.org/2000/svg">
<path d="M12.5 16.6667C12.5 15.286 11.3807 14.1667 10 14.1667C8.61929 14.1667 7.5 15.286 7.5 16.6667C7.5 18.0474 8.61929 19.1667 10 19.1667C11.3807 19.1667 12.5 18.0474 12.5 16.6667Z" fill="black"/>
<path d="M12.5 16.6667C12.5 15.286 11.3807 14.1667 10 14.1667C8.61929 14.1667 7.5 15.286 7.5 16.6667C7.5 18.0474 8.61929 19.1667 10 19.1667C11.3807 19.1667 12.5 18.0474 12.5 16.6667Z" fill="black"/>
<path d="M12.5 10C12.5 8.61929 11.3807 7.5 10 7.5C8.61929 7.5 7.5 8.61929 7.5 10C7.5 11.3807 8.61929 12.5 10 12.5C11.3807 12.5 12.5 11.3807 12.5 10Z" fill="black"/>
<path d="M12.5 3.33334C12.5 1.95262 11.3807 0.833336 10 0.833336C8.61929 0.833336 7.5 1.95262 7.5 3.33334C7.5 4.71405 8.61929 5.83334 10 5.83334C11.3807 5.83334 12.5 4.71405 12.5 3.33334Z" fill="black"/>
</svg>
