<svg width="20" height="20" viewBox="0 0 20 20" fill="none" xmlns="http://www.w3.org/2000/svg">
<path d="M2.49992 14.1667H17.4999C17.9583 14.1667 18.3333 14.5417 18.3333 15C18.3333 15.4583 17.9583 15.8333 17.4999 15.8333H2.49992C2.04159 15.8333 1.66659 15.4583 1.66659 15C1.66659 14.5417 2.04159 14.1667 2.49992 14.1667ZM2.08325 10.475C2.38325 10.65 2.76659 10.5417 2.94159 10.2417L3.33325 9.55833L3.73325 10.25C3.90825 10.55 4.29159 10.65 4.59159 10.4833C4.89159 10.3083 4.99159 9.93333 4.82492 9.63333L4.41659 8.93333H5.20825C5.54992 8.93333 5.83325 8.65 5.83325 8.30833C5.83325 7.96667 5.54992 7.68333 5.20825 7.68333H4.41659L4.80825 7C4.98325 6.7 4.88325 6.31667 4.58325 6.14167C4.43803 6.06083 4.26696 6.03999 4.10658 6.08358C3.9462 6.12718 3.80923 6.23177 3.72492 6.375L3.33325 7.05833L2.94159 6.375C2.85728 6.23177 2.7203 6.12718 2.55992 6.08358C2.39954 6.03999 2.22847 6.06083 2.08325 6.14167C1.78325 6.31667 1.68325 6.7 1.85825 7L2.24992 7.68333H1.45825C1.11659 7.68333 0.833252 7.96667 0.833252 8.30833C0.833252 8.65 1.11659 8.93333 1.45825 8.93333H2.24992L1.84992 9.625C1.68325 9.925 1.78325 10.3083 2.08325 10.475ZM8.74992 10.475C9.04992 10.65 9.43325 10.5417 9.60825 10.2417L9.99992 9.55833L10.3999 10.25C10.5749 10.55 10.9583 10.65 11.2583 10.4833C11.5583 10.3083 11.6583 9.93333 11.4916 9.63333L11.0916 8.94167H11.8833C12.2249 8.94167 12.5083 8.65833 12.5083 8.31667C12.5083 7.975 12.2249 7.69167 11.8833 7.69167H11.0833L11.4749 7.00833C11.5573 6.86431 11.5799 6.69369 11.5379 6.53318C11.4958 6.37266 11.3924 6.23507 11.2499 6.15C11.1793 6.10895 11.1014 6.08221 11.0204 6.0713C10.9395 6.0604 10.8572 6.06554 10.7783 6.08643C10.6994 6.10732 10.6253 6.14356 10.5604 6.19308C10.4955 6.24259 10.4409 6.30441 10.3999 6.375L9.99992 7.05833L9.60825 6.375C9.56754 6.30408 9.51317 6.24194 9.44828 6.19217C9.38339 6.14241 9.30927 6.10601 9.23022 6.08508C9.15116 6.06416 9.06874 6.05912 8.98773 6.07026C8.90672 6.08141 8.82872 6.10851 8.75825 6.15C8.45825 6.325 8.35825 6.70833 8.53325 7.00833L8.92492 7.69167H8.12492C8.04324 7.69056 7.96215 7.7057 7.88637 7.73619C7.81059 7.76669 7.74162 7.81194 7.68347 7.86931C7.62532 7.92668 7.57915 7.99504 7.54764 8.0704C7.51613 8.14577 7.49991 8.22665 7.49992 8.30833C7.49992 8.65 7.78325 8.93333 8.12492 8.93333H8.91659L8.51659 9.625C8.34992 9.925 8.44992 10.3083 8.74992 10.475ZM19.1666 8.30833C19.1666 7.96667 18.8833 7.68333 18.5416 7.68333H17.7499L18.1416 7C18.224 6.85598 18.2466 6.68536 18.2045 6.52484C18.1625 6.36433 18.0591 6.22674 17.9166 6.14167C17.846 6.10062 17.768 6.07388 17.6871 6.06297C17.6062 6.05206 17.5239 6.0572 17.445 6.0781C17.366 6.09899 17.292 6.13523 17.2271 6.18474C17.1622 6.23426 17.1076 6.29607 17.0666 6.36667L16.6666 7.05833L16.2749 6.375C16.2342 6.30408 16.1798 6.24194 16.1149 6.19217C16.0501 6.14241 15.9759 6.10601 15.8969 6.08508C15.8178 6.06416 15.7354 6.05912 15.6544 6.07026C15.5734 6.08141 15.4954 6.10851 15.4249 6.15C15.1249 6.325 15.0249 6.70833 15.1999 7.00833L15.5916 7.69167H14.7999C14.7176 7.68978 14.6358 7.70432 14.5592 7.73444C14.4826 7.76455 14.4128 7.80964 14.3538 7.86706C14.2948 7.92447 14.2479 7.99307 14.2158 8.06884C14.1836 8.14461 14.1669 8.22603 14.1666 8.30833C14.1666 8.65 14.4499 8.93333 14.7916 8.93333H15.5833L15.1833 9.625C15.1419 9.69591 15.1151 9.77437 15.1044 9.85577C15.0938 9.93718 15.0995 10.0199 15.1212 10.0991C15.1429 10.1782 15.1802 10.2523 15.231 10.3168C15.2817 10.3814 15.3448 10.4352 15.4166 10.475C15.7166 10.65 16.0999 10.5417 16.2749 10.2417L16.6666 9.55833L17.0666 10.25C17.2416 10.55 17.6249 10.65 17.9249 10.4833C18.2249 10.3083 18.3249 9.93333 18.1583 9.63333L17.7583 8.94167H18.5499C18.8833 8.93333 19.1666 8.65 19.1666 8.30833Z" fill="#256666"/>
</svg>
